<?xml version="1.0" encoding="UTF-8" standalone="no"?><svg xmlns="http://www.w3.org/2000/svg" xmlns:xlink="http://www.w3.org/1999/xlink" contentStyleType="text/css" height="1259px" preserveAspectRatio="none" style="width:2553px;height:1259px;background:#000000;" version="1.1" viewBox="0 0 2553 1259" width="2553px" zoomAndPan="magnify"><defs/><g><!--cluster PlantUML_Config--><g id="cluster_PlantUML_Config"><path d="M19.5,7 L2527,7 A12.5,12.5 0 0 1 2539.5,19.5 L2539.5,28.2969 L7,28.2969 L7,19.5 A12.5,12.5 0 0 1 19.5,7 " fill="#303030" style="stroke:#303030;stroke-width:1.0;"/><rect fill="none" height="1246" rx="12.5" ry="12.5" style="stroke:#E7E7E7;stroke-width:0.5;" width="2532.5" x="7" y="7"/><line style="stroke:#E7E7E7;stroke-width:0.5;" x1="7" x2="2539.5" y1="28.2969" y2="28.2969"/><text fill="#FFFFFF" font-family="sans-serif" font-size="14" lengthAdjust="spacing" textLength="120" x="1213.25" y="23.9951">PlantUML_Config</text></g><!--cluster Cluster--><g id="cluster_Cluster"><path d="M719.5,212 L2487,212 A12.5,12.5 0 0 1 2499.5,224.5 L2499.5,233.2969 L707,233.2969 L707,224.5 A12.5,12.5 0 0 1 719.5,212 " fill="#303030" style="stroke:#303030;stroke-width:1.0;"/><rect fill="none" height="993" rx="12.5" ry="12.5" style="stroke:#E7E7E7;stroke-width:0.5;" width="1792.5" x="707" y="212"/><line style="stroke:#E7E7E7;stroke-width:0.5;" x1="707" x2="2499.5" y1="233.2969" y2="233.2969"/><text fill="#FFFFFF" font-family="sans-serif" font-size="14" lengthAdjust="spacing" textLength="51" x="1577.75" y="228.9951">Cluster</text></g><!--cluster Start--><g id="cluster_Start"><path d="M1160.64,745 L1616.5,745 A12.5,12.5 0 0 1 1629,757.5 L1629,766.2969 L1148.14,766.2969 L1148.14,757.5 A12.5,12.5 0 0 1 1160.64,745 " fill="#303030" style="stroke:#303030;stroke-width:1.0;"/><rect fill="none" height="144" rx="12.5" ry="12.5" style="stroke:#E7E7E7;stroke-width:0.5;" width="480.86" x="1148.14" y="745"/><line style="stroke:#E7E7E7;stroke-width:0.5;" x1="1148.14" x2="1629" y1="766.2969" y2="766.2969"/><text fill="#FFFFFF" font-family="sans-serif" font-size="14" lengthAdjust="spacing" textLength="37" x="1370.07" y="761.9951">Start</text></g><!--cluster Result--><g id="cluster_Result"><path d="M759.5,271 L2447,271 A12.5,12.5 0 0 1 2459.5,283.5 L2459.5,292.2969 L747,292.2969 L747,283.5 A12.5,12.5 0 0 1 759.5,271 " fill="#303030" style="stroke:#303030;stroke-width:1.0;"/><rect fill="none" height="399" rx="12.5" ry="12.5" style="stroke:#E7E7E7;stroke-width:0.5;" width="1712.5" x="747" y="271"/><line style="stroke:#E7E7E7;stroke-width:0.5;" x1="747" x2="2459.5" y1="292.2969" y2="292.2969"/><text fill="#FFFFFF" font-family="sans-serif" font-size="14" lengthAdjust="spacing" textLength="45" x="1580.75" y="287.9951">Result</text></g><!--cluster OperatorEnteredId--><g id="cluster_OperatorEnteredId"><path d="M1140,330 L2407,330 A12.5,12.5 0 0 1 2419.5,342.5 L2419.5,351.2969 L1127.5,351.2969 L1127.5,342.5 A12.5,12.5 0 0 1 1140,330 " fill="#303030" style="stroke:#303030;stroke-width:1.0;"/><rect fill="none" height="300" rx="12.5" ry="12.5" style="stroke:#E7E7E7;stroke-width:0.5;" width="1292" x="1127.5" y="330"/><line style="stroke:#E7E7E7;stroke-width:0.5;" x1="1127.5" x2="2419.5" y1="351.2969" y2="351.2969"/><text fill="#FFFFFF" font-family="sans-serif" font-size="14" lengthAdjust="spacing" textLength="124" x="1711.5" y="346.9951">OperatorEntered</text></g><!--cluster Operand2Entered--><g id="cluster_Operand2Entered"><path d="M341.5,754 L460.5,754 A12.5,12.5 0 0 1 473,766.5 L473,775.2969 L329,775.2969 L329,766.5 A12.5,12.5 0 0 1 341.5,754 " fill="#303030" style="stroke:#303030;stroke-width:1.0;"/><rect fill="none" height="136" rx="12.5" ry="12.5" style="stroke:#E7E7E7;stroke-width:0.5;" width="144" x="329" y="754"/><line style="stroke:#E7E7E7;stroke-width:0.5;" x1="329" x2="473" y1="775.2969" y2="775.2969"/><text fill="#FFFFFF" font-family="sans-serif" font-size="14" lengthAdjust="spacing" textLength="128" x="337" y="770.9951">Operand2Entered</text></g><ellipse cx="1156.5" cy="178" fill="#DDDDDD" rx="10" ry="10" style="stroke:none;stroke-width:1.0;"/><g id="PlantUML_Config.Operand1Entered"><rect fill="#303030" height="50" rx="12.5" ry="12.5" style="stroke:#E7E7E7;stroke-width:0.5;" width="149" x="326" y="385"/><line style="stroke:#E7E7E7;stroke-width:0.5;" x1="326" x2="475" y1="411.2969" y2="411.2969"/><text fill="#FFFFFF" font-family="sans-serif" font-size="14" lengthAdjust="spacing" textLength="129" x="336" y="402.9951">Operand1Entered</text></g><g id="PlantUML_Config.NegativeNumber2"><rect fill="#303030" height="50" rx="12.5" ry="12.5" style="stroke:#E7E7E7;stroke-width:0.5;" width="149" x="1082" y="50"/><line style="stroke:#E7E7E7;stroke-width:0.5;" x1="1082" x2="1231" y1="76.2969" y2="76.2969"/><text fill="#FFFFFF" font-family="sans-serif" font-size="14" lengthAdjust="spacing" textLength="129" x="1092" y="67.9951">NegativeNumber2</text></g><g id="PlantUML_Config.AlertError"><rect fill="#303030" height="50" rx="12.5" ry="12.5" style="stroke:#E7E7E7;stroke-width:0.5;" width="92" x="31" y="787"/><line style="stroke:#E7E7E7;stroke-width:0.5;" x1="31" x2="123" y1="813.2969" y2="813.2969"/><text fill="#FFFFFF" font-family="sans-serif" font-size="14" lengthAdjust="spacing" textLength="72" x="41" y="804.9951">AlertError</text></g><ellipse cx="776" cy="704" fill="#DDDDDD" rx="10" ry="10" style="stroke:none;stroke-width:1.0;"/><g id="PlantUML_Config.Cluster.Zero1"><rect fill="#303030" height="50" rx="12.5" ry="12.5" style="stroke:#E7E7E7;stroke-width:0.5;" width="54" x="1902.5" y="841"/><line style="stroke:#E7E7E7;stroke-width:0.5;" x1="1902.5" x2="1956.5" y1="867.2969" y2="867.2969"/><text fill="#FFFFFF" font-family="sans-serif" font-size="14" lengthAdjust="spacing" textLength="34" x="1912.5" y="858.9951">Zero</text></g><g id="PlantUML_Config.Cluster.BeforeDecimalPoint1"><rect fill="#303030" height="50" rx="12.5" ry="12.5" style="stroke:#E7E7E7;stroke-width:0.5;" width="165" x="2236" y="959"/><line style="stroke:#E7E7E7;stroke-width:0.5;" x1="2236" x2="2401" y1="985.2969" y2="985.2969"/><text fill="#FFFFFF" font-family="sans-serif" font-size="14" lengthAdjust="spacing" textLength="145" x="2246" y="976.9951">BeforeDecimalPoint</text></g><g id="PlantUML_Config.Cluster.AfterDecimalPoint1"><rect fill="#303030" height="50" rx="12.5" ry="12.5" style="stroke:#E7E7E7;stroke-width:0.5;" width="154" x="2241.5" y="754"/><line style="stroke:#E7E7E7;stroke-width:0.5;" x1="2241.5" x2="2395.5" y1="780.2969" y2="780.2969"/><text fill="#FFFFFF" font-family="sans-serif" font-size="14" lengthAdjust="spacing" textLength="134" x="2251.5" y="771.9951">AfterDecimalPoint</text></g><g id="PlantUML_Config.Cluster.Start.NegativeNumber1Id"><rect fill="#303030" height="50" rx="12.5" ry="12.5" style="stroke:#E7E7E7;stroke-width:0.5;" width="150" x="1455" y="815"/><line style="stroke:#E7E7E7;stroke-width:0.5;" x1="1455" x2="1605" y1="841.2969" y2="841.2969"/><text fill="#FFFFFF" font-family="sans-serif" font-size="14" lengthAdjust="spacing" textLength="130" x="1465" y="832.9951">NegativeNumber1</text></g><g id="PlantUML_Config.Cluster.Result.OperatorEnteredId.Zero2"><rect fill="#303030" height="50" rx="12.5" ry="12.5" style="stroke:#E7E7E7;stroke-width:0.5;" width="54" x="1503" y="418"/><line style="stroke:#E7E7E7;stroke-width:0.5;" x1="1503" x2="1557" y1="444.2969" y2="444.2969"/><text fill="#FFFFFF" font-family="sans-serif" font-size="14" lengthAdjust="spacing" textLength="34" x="1513" y="435.9951">Zero</text></g><g id="PlantUML_Config.Cluster.Result.OperatorEnteredId.BeforeDecimalPoint2"><rect fill="#303030" height="50" rx="12.5" ry="12.5" style="stroke:#E7E7E7;stroke-width:0.5;" width="165" x="1847" y="535"/><line style="stroke:#E7E7E7;stroke-width:0.5;" x1="1847" x2="2012" y1="561.2969" y2="561.2969"/><text fill="#FFFFFF" font-family="sans-serif" font-size="14" lengthAdjust="spacing" textLength="145" x="1857" y="552.9951">BeforeDecimalPoint</text></g><g id="PlantUML_Config.Cluster.Result.OperatorEnteredId.AfterDecimalPoint2"><rect fill="#303030" height="50" rx="12.5" ry="12.5" style="stroke:#E7E7E7;stroke-width:0.5;" width="154" x="2241.5" y="456"/><line style="stroke:#E7E7E7;stroke-width:0.5;" x1="2241.5" x2="2395.5" y1="482.2969" y2="482.2969"/><text fill="#FFFFFF" font-family="sans-serif" font-size="14" lengthAdjust="spacing" textLength="134" x="2251.5" y="473.9951">AfterDecimalPoint</text></g><g id="PlantUML_Config.Operand2Entered.History"><rect fill="#303030" height="50" rx="12.5" ry="12.5" style="stroke:#E7E7E7;stroke-width:0.5;" width="71" x="365" y="816"/><line style="stroke:#E7E7E7;stroke-width:0.5;" x1="365" x2="436" y1="842.2969" y2="842.2969"/><text fill="#FFFFFF" font-family="sans-serif" font-size="14" lengthAdjust="spacing" textLength="51" x="375" y="833.9951">History</text></g><!--link *start*PlantUML_Config to Cluster--><g id="link_*start*PlantUML_Config_Cluster"><path d="M1166.11,181.01 C1179.85,185.82 1207.57,195.56 1231,204 C1237.68,206.405 1241.705,208.4275 1245.7975,210.2125 C1246.8206,210.6587 1247.848,211.0902 1248.9221,211.509 C1249.1906,211.6137 1249.462,211.7176 1249.7371,211.8208 C1249.8746,211.8724 1250.013,211.9238 1250.1524,211.975 " fill="none" id="*start*PlantUML_Config-to-Cluster" style="stroke:#E7E7E7;stroke-width:1.0;"/><polygon fill="#E7E7E7" points="1250.1524,211.975,1243.084,205.1166,1245.4591,210.2506,1240.3251,212.6258,1250.1524,211.975" style="stroke:#E7E7E7;stroke-width:1.0;"/></g><!--link PlantUML_Config to Cluster--><g id="link_PlantUML_Config_Cluster"><path d="M1157.57,1244.9647 C1158.9875,1244.2245 1182.555,1231.9174 1217.1967,1213.8273 C1221.5269,1211.566 1226.0302,1209.2144 1230.6848,1206.7837 C1231.2667,1206.4798 1231.8509,1206.1747 1232.4374,1205.8685 " fill="none" id="PlantUML_Config-to-Cluster" style="stroke:#E7E7E7;stroke-width:1.0;"/><polygon fill="#E7E7E7" points="1232.4374,1205.8685,1222.6081,1206.4888,1228.0053,1208.1829,1226.3112,1213.5802,1232.4374,1205.8685" style="stroke:#E7E7E7;stroke-width:1.0;"/><text fill="#FFFFFF" font-family="sans-serif" font-size="13" lengthAdjust="spacing" textLength="102" x="1292" y="1104.0669">RESET_CLICKED</text></g><!--link *start*Cluster to Start--><g id="link_*start*Cluster_Start"><path d="M785.983,706.017 C814.418,712.403 905.5822,732.8758 990.2378,751.8869 C1032.5655,761.3924 1073.2661,770.5326 1103.6847,777.3638 C1118.894,780.7794 1131.5328,783.6178 1140.5193,785.6359 C1142.766,786.1405 1144.7843,786.5938 1146.5575,786.992 C1147.0008,787.0916 1147.4288,787.1877 1147.8411,787.2803 " fill="none" id="*start*Cluster-to-Start" style="stroke:#E7E7E7;stroke-width:1.0;"/><polygon fill="#E7E7E7" points="1147.8411,787.2803,1139.9364,781.4054,1142.9627,786.1847,1138.1834,789.2109,1147.8411,787.2803" style="stroke:#E7E7E7;stroke-width:1.0;"/></g><!--link Cluster to Zero1--><g id="link_Cluster_Zero1"><path d="M1531.07,1050.966 C1536.13,1048.61 1805.26,923.358 1897.71,880.331 " fill="none" id="Cluster-to-Zero1" style="stroke:#E7E7E7;stroke-width:1.0;"/><polygon fill="#E7E7E7" points="1902.5,878.102,1892.6523,878.2558,1897.9632,880.2038,1896.0153,885.5147,1902.5,878.102" style="stroke:#E7E7E7;stroke-width:1.0;"/><text fill="#FFFFFF" font-family="sans-serif" font-size="13" lengthAdjust="spacing" textLength="95" x="1687.5" y="901.0669">DIGIT_CLICKED</text><text fill="#FFFFFF" font-family="sans-serif" font-size="13" lengthAdjust="spacing" textLength="4" x="1687.5" y="916.1997">/</text></g><!--link Cluster to BeforeDecimalPoint1--><g id="link_Cluster_BeforeDecimalPoint1"><path d="M1531.05,1051.022 C1535.17,1052.857 1799.57,1170.146 2012,1135 C2101.85,1120.134 2125.63,1111.833 2206,1069 C2235.12,1053.481 2264.67,1030.563 2286.02,1012.434 " fill="none" id="Cluster-to-BeforeDecimalPoint1" style="stroke:#E7E7E7;stroke-width:1.0;"/><polygon fill="#E7E7E7" points="2289.91,1009.107,2280.4735,1011.9271,2286.1137,1012.361,2285.6799,1018.0011,2289.91,1009.107" style="stroke:#E7E7E7;stroke-width:1.0;"/><text fill="#FFFFFF" font-family="sans-serif" font-size="13" lengthAdjust="spacing" textLength="95" x="1882" y="1116.0669">DIGIT_CLICKED</text><text fill="#FFFFFF" font-family="sans-serif" font-size="13" lengthAdjust="spacing" textLength="4" x="1882" y="1131.1997">/</text></g><!--link Cluster to AfterDecimalPoint1--><g id="link_Cluster_AfterDecimalPoint1"><path d="M1531.08,1051.021 C1538.15,1052.824 1991.35,1167.34 2206,957 C2249.9,913.982 2198.71,870.856 2236,822 C2240.18,816.528 2245.25,811.681 2250.81,807.402 " fill="none" id="Cluster-to-AfterDecimalPoint1" style="stroke:#E7E7E7;stroke-width:1.0;"/><polygon fill="#E7E7E7" points="2255.14,804.241,2245.5102,806.3069,2251.0985,807.1849,2250.2205,812.7732,2255.14,804.241" style="stroke:#E7E7E7;stroke-width:1.0;"/><text fill="#FFFFFF" font-family="sans-serif" font-size="13" lengthAdjust="spacing" textLength="162" x="1848.5" y="1043.0669">DECIMAL_POINT_CLICKED</text><text fill="#FFFFFF" font-family="sans-serif" font-size="13" lengthAdjust="spacing" textLength="8" x="1848.5" y="1058.1997">/,</text></g><!--link Start to NegativeNumber1Id--><g id="link_Start_NegativeNumber1Id"><path d="M1157.63,788.962 C1160.35,788.183 1204.26,775.986 1231,793 C1254.82,808.158 1236.77,834.495 1261,849 C1317.41,882.777 1393.15,876.544 1449.72,864.168 " fill="none" id="Start-to-NegativeNumber1Id" style="stroke:#E7E7E7;stroke-width:1.0;"/><polygon fill="#E7E7E7" points="1454.79,863.032,1445.1306,861.1095,1449.9124,864.1318,1446.8902,868.9136,1454.79,863.032" style="stroke:#E7E7E7;stroke-width:1.0;"/><text fill="#FFFFFF" font-family="sans-serif" font-size="13" lengthAdjust="spacing" textLength="132" x="1277" y="845.0669">OPERATOR_CLICKED</text></g><!--link NegativeNumber1Id to Start--><g id="link_NegativeNumber1Id_Start"><path d="M1454.88,826.154 C1394.75,815.443 1307.7,801.114 1231,793 C1199.48,789.666 1160.05,789.038 1157.62,789.002 " fill="none" id="NegativeNumber1Id-to-Start" style="stroke:#E7E7E7;stroke-width:1.0;"/><polygon fill="#E7E7E7" points="1157.62,789.002,1166.5598,793.1349,1162.6195,789.0761,1166.6783,785.1358,1157.62,789.002" style="stroke:#E7E7E7;stroke-width:1.0;"/><text fill="#FFFFFF" font-family="sans-serif" font-size="13" lengthAdjust="spacing" textLength="162" x="1262" y="792.0669">CLEAR_BUTTON_CLICKED</text></g><!--link Result to OperatorEnteredId--><g id="link_Result_OperatorEnteredId"><path d="M777.158,540.009 C783.771,540.366 995.83,551.637 1052,530 C1079.6,519.369 1105.105,498.1273 1123.8913,479.295 C1125.0654,478.118 1126.2133,476.9504 1127.3338,475.7954 " fill="none" id="Result-to-OperatorEnteredId" style="stroke:#E7E7E7;stroke-width:1.0;"/><polygon fill="#E7E7E7" points="1127.3338,475.7954,1118.1961,479.4698,1123.8523,479.3841,1123.938,485.0403,1127.3338,475.7954" style="stroke:#E7E7E7;stroke-width:1.0;"/><text fill="#FFFFFF" font-family="sans-serif" font-size="13" lengthAdjust="spacing" textLength="132" x="904" y="511.0669">OPERATOR_CLICKED</text><text fill="#FFFFFF" font-family="sans-serif" font-size="13" lengthAdjust="spacing" textLength="4" x="904" y="526.1997">/</text></g><!--link Result to Result--><g id="link_Result_Result"><path d="M2442.5,539.861 C2395.555,528.03 2395.74,504.64 2443.054,504.64 C2490.368,504.64 2490.553,528.03 2443.608,539.861 " fill="none" id="Result-to-Result" style="stroke:#E7E7E7;stroke-width:1.0;"/><polygon fill="#E7E7E7" points="2443.608,539.861,2453.3126,541.5403,2448.4564,538.6391,2451.3576,533.7829,2443.608,539.861" style="stroke:#E7E7E7;stroke-width:1.0;"/><text fill="#FFFFFF" font-family="sans-serif" font-size="13" lengthAdjust="spacing" textLength="157" x="2364.554" y="480.7069">PERCENT_SIGN_CLICKED</text><text fill="#FFFFFF" font-family="sans-serif" font-size="13" lengthAdjust="spacing" textLength="4" x="2364.554" y="495.8397">/</text></g><!--link NegativeNumber1Id to Zero1--><g id="link_NegativeNumber1Id_Zero1"><path d="M1605.3,844.86 C1692.94,850.593 1834.62,859.859 1897.14,863.949 " fill="none" id="NegativeNumber1Id-to-Zero1" style="stroke:#E7E7E7;stroke-width:1.0;"/><polygon fill="#E7E7E7" points="1902.22,864.281,1893.4892,859.7232,1897.2299,863.9667,1892.9864,867.7074,1902.22,864.281" style="stroke:#E7E7E7;stroke-width:1.0;"/><text fill="#FFFFFF" font-family="sans-serif" font-size="13" lengthAdjust="spacing" textLength="95" x="1687.5" y="829.0669">DIGIT_CLICKED</text><text fill="#FFFFFF" font-family="sans-serif" font-size="13" lengthAdjust="spacing" textLength="4" x="1687.5" y="844.1997">/</text></g><!--link NegativeNumber1Id to BeforeDecimalPoint1--><g id="link_NegativeNumber1Id_BeforeDecimalPoint1"><path d="M1605.17,857.8 C1618.49,861.299 1632.2,865.101 1645,869 C1736.17,896.779 1753.63,921.885 1847,941 C2003.61,973.06 2047.36,943.303 2206,963 C2214.01,963.995 2222.32,965.21 2230.62,966.548 " fill="none" id="NegativeNumber1Id-to-BeforeDecimalPoint1" style="stroke:#E7E7E7;stroke-width:1.0;"/><polygon fill="#E7E7E7" points="2235.78,967.397,2227.5514,961.985,2230.8467,966.5829,2226.2488,969.8782,2235.78,967.397" style="stroke:#E7E7E7;stroke-width:1.0;"/><text fill="#FFFFFF" font-family="sans-serif" font-size="13" lengthAdjust="spacing" textLength="95" x="1882" y="922.0669">DIGIT_CLICKED</text><text fill="#FFFFFF" font-family="sans-serif" font-size="13" lengthAdjust="spacing" textLength="4" x="1882" y="937.1997">/</text></g><!--link NegativeNumber1Id to AfterDecimalPoint1--><g id="link_NegativeNumber1Id_AfterDecimalPoint1"><path d="M1605.22,819.166 C1620.92,815.143 1637.45,811.192 1653,808 C1894.52,758.425 1960,747.527 2206,764 C2215.88,764.662 2226.22,765.65 2236.45,766.809 " fill="none" id="NegativeNumber1Id-to-AfterDecimalPoint1" style="stroke:#E7E7E7;stroke-width:1.0;"/><polygon fill="#E7E7E7" points="2241.46,767.391,2232.9763,762.3883,2236.4928,766.8194,2232.0617,770.3359,2241.46,767.391" style="stroke:#E7E7E7;stroke-width:1.0;"/><text fill="#FFFFFF" font-family="sans-serif" font-size="13" lengthAdjust="spacing" textLength="162" x="1848.5" y="737.0669">DECIMAL_POINT_CLICKED</text><text fill="#FFFFFF" font-family="sans-serif" font-size="13" lengthAdjust="spacing" textLength="8" x="1848.5" y="752.1997">/,</text></g><!--link Operand1Entered to OperatorEnteredId--><g id="link_Operand1Entered_OperatorEnteredId"><path d="M475.413,395.321 C598.986,374.076 853.515,344.517 1052,415 C1068.09,420.714 1066.05,432.912 1082,439 C1089.4025,441.8248 1097.5306,443.5159 1105.5987,444.4568 C1109.6328,444.9273 1113.6519,445.2102 1117.5577,445.3535 C1119.5107,445.4251 1121.4353,445.4618 1123.3193,445.4697 C1124.2614,445.4736 1125.1933,445.4703 1126.1135,445.4605 C1126.5736,445.4556 1127.0307,445.449 1127.4848,445.441 " fill="none" id="Operand1Entered-to-OperatorEnteredId" style="stroke:#E7E7E7;stroke-width:1.0;"/><polygon fill="#E7E7E7" points="1127.4848,445.441,1118.4154,441.6011,1122.4856,445.5296,1118.5571,449.5998,1127.4848,445.441" style="stroke:#E7E7E7;stroke-width:1.0;"/><text fill="#FFFFFF" font-family="sans-serif" font-size="13" lengthAdjust="spacing" textLength="132" x="710" y="351.0669">OPERATOR_CLICKED</text><text fill="#FFFFFF" font-family="sans-serif" font-size="13" lengthAdjust="spacing" textLength="4" x="710" y="366.1997">/</text></g><!--link Operand1Entered to Result--><g id="link_Operand1Entered_Result"><path d="M445.378,435.145 C500.635,465.361 599.448,514.656 691,536 C708.631,540.1105 728.89,541.1775 745.0945,541.185 C745.6009,541.1852 746.1033,541.1844 746.6016,541.1827 C746.7262,541.1822 746.8505,541.1817 746.9745,541.1811 " fill="none" id="Operand1Entered-to-Result" style="stroke:#E7E7E7;stroke-width:1.0;"/><polygon fill="#E7E7E7" points="746.9745,541.1811,737.9564,537.2221,741.9746,541.2039,737.9928,545.2221,746.9745,541.1811" style="stroke:#E7E7E7;stroke-width:1.0;"/><text fill="#FFFFFF" font-family="sans-serif" font-size="13" lengthAdjust="spacing" textLength="157" x="506" y="448.0669">PERCENT_SIGN_CLICKED</text><text fill="#FFFFFF" font-family="sans-serif" font-size="13" lengthAdjust="spacing" textLength="4" x="506" y="463.1997">/</text></g><!--link Operand1Entered to Cluster--><g id="link_Operand1Entered_Cluster"><path d="M465.664,384.976 C478.587,380.352 492.149,375.793 505,372 C586.282,348.012 606.874,340.252 691,330 C696.0602,329.3833 701.0844,328.7284 706.0734,328.0374 " fill="none" id="Operand1Entered-to-Cluster" style="stroke:#E7E7E7;stroke-width:1.0;"/><polygon fill="#E7E7E7" points="706.0734,328.0374,696.6097,325.31,701.1207,328.7234,697.7073,333.2343,706.0734,328.0374" style="stroke:#E7E7E7;stroke-width:1.0;"/><text fill="#FFFFFF" font-family="sans-serif" font-size="13" lengthAdjust="spacing" textLength="162" x="889" y="232.0669">CLEAR_BUTTON_CLICKED</text></g><!--link Zero1 to Zero1--><g id="link_Zero1_Zero1"><path d="M1902.22,848.188 C1884.03,828.5 1893.12,806 1929.5,806 C1963.32,806 1973.56,825.447 1960.21,844.002 " fill="none" id="Zero1-to-Zero1" style="stroke:#E7E7E7;stroke-width:1.0;"/><polygon fill="#E7E7E7" points="1956.78,848.188,1965.5847,843.7746,1959.9547,844.3252,1959.4041,838.6952,1956.78,848.188" style="stroke:#E7E7E7;stroke-width:1.0;"/><text fill="#FFFFFF" font-family="sans-serif" font-size="13" lengthAdjust="spacing" textLength="95" x="1882" y="797.0669">DIGIT_CLICKED</text></g><!--link Zero1 to BeforeDecimalPoint1--><g id="link_Zero1_BeforeDecimalPoint1"><path d="M1956.74,873.796 C2005.76,888.384 2114.57,920.877 2206,949 C2214.83,951.717 2224.06,954.576 2233.25,957.44 " fill="none" id="Zero1-to-BeforeDecimalPoint1" style="stroke:#E7E7E7;stroke-width:1.0;"/><polygon fill="#E7E7E7" points="2238.05,958.937,2230.6633,952.4226,2233.28,957.4379,2228.2648,960.0546,2238.05,958.937" style="stroke:#E7E7E7;stroke-width:1.0;"/><text fill="#FFFFFF" font-family="sans-serif" font-size="13" lengthAdjust="spacing" textLength="95" x="2076.5" y="880.0669">DIGIT_CLICKED</text><text fill="#FFFFFF" font-family="sans-serif" font-size="13" lengthAdjust="spacing" textLength="4" x="2076.5" y="895.1997">/</text></g><!--link Zero1 to AfterDecimalPoint1--><g id="link_Zero1_AfterDecimalPoint1"><path d="M1956.8,860.089 C2013.31,847.383 2148.35,817.025 2236.22,797.273 " fill="none" id="Zero1-to-AfterDecimalPoint1" style="stroke:#E7E7E7;stroke-width:1.0;"/><polygon fill="#E7E7E7" points="2241.15,796.164,2231.4906,794.2415,2236.2724,797.2638,2233.2502,802.0456,2241.15,796.164" style="stroke:#E7E7E7;stroke-width:1.0;"/><text fill="#FFFFFF" font-family="sans-serif" font-size="13" lengthAdjust="spacing" textLength="162" x="2043" y="785.0669">DECIMAL_POINT_CLICKED</text><text fill="#FFFFFF" font-family="sans-serif" font-size="13" lengthAdjust="spacing" textLength="4" x="2043" y="800.1997">/</text></g><!--link BeforeDecimalPoint1 to BeforeDecimalPoint1--><g id="link_BeforeDecimalPoint1_BeforeDecimalPoint1"><path d="M2302.09,958.722 C2297.12,941.227 2302.59,924 2318.5,924 C2332.92,924 2338.77,938.148 2336.03,953.823 " fill="none" id="BeforeDecimalPoint1-to-BeforeDecimalPoint1" style="stroke:#E7E7E7;stroke-width:1.0;"/><polygon fill="#E7E7E7" points="2334.91,958.722,2340.8205,950.8438,2336.0276,953.8485,2333.0229,949.0556,2334.91,958.722" style="stroke:#E7E7E7;stroke-width:1.0;"/><text fill="#FFFFFF" font-family="sans-serif" font-size="13" lengthAdjust="spacing" textLength="95" x="2271" y="900.0669">DIGIT_CLICKED</text><text fill="#FFFFFF" font-family="sans-serif" font-size="13" lengthAdjust="spacing" textLength="4" x="2271" y="915.1997">/</text></g><!--link BeforeDecimalPoint1 to BeforeDecimalPoint1--><g id="link_BeforeDecimalPoint1_BeforeDecimalPoint1"><path d="M2293.63,958.809 C2272.32,924.928 2280.61,882 2318.5,882 C2354.76,882 2363.91,921.318 2345.95,954.395 " fill="none" id="BeforeDecimalPoint1-to-BeforeDecimalPoint1-1" style="stroke:#E7E7E7;stroke-width:1.0;"/><polygon fill="#E7E7E7" points="2343.37,958.809,2351.3689,953.063,2345.8961,954.494,2344.465,949.0212,2343.37,958.809" style="stroke:#E7E7E7;stroke-width:1.0;"/><text fill="#FFFFFF" font-family="sans-serif" font-size="13" lengthAdjust="spacing" textLength="162" x="2237.5" y="858.0669">DECIMAL_POINT_CLICKED</text><text fill="#FFFFFF" font-family="sans-serif" font-size="13" lengthAdjust="spacing" textLength="4" x="2237.5" y="873.1997">/</text></g><!--link AfterDecimalPoint1 to AfterDecimalPoint1--><g id="link_AfterDecimalPoint1_AfterDecimalPoint1"><path d="M2285.68,753.722 C2275.73,736.227 2286.67,719 2318.5,719 C2347.34,719 2359.03,733.148 2353.57,748.823 " fill="none" id="AfterDecimalPoint1-to-AfterDecimalPoint1" style="stroke:#E7E7E7;stroke-width:1.0;"/><polygon fill="#E7E7E7" points="2351.32,753.722,2358.7087,747.2099,2353.405,749.1775,2351.4375,743.8738,2351.32,753.722" style="stroke:#E7E7E7;stroke-width:1.0;"/><text fill="#FFFFFF" font-family="sans-serif" font-size="13" lengthAdjust="spacing" textLength="95" x="2271" y="695.0669">DIGIT_CLICKED</text><text fill="#FFFFFF" font-family="sans-serif" font-size="13" lengthAdjust="spacing" textLength="4" x="2271" y="710.1997">/</text></g><!--link OperatorEnteredId to Zero2--><g id="link_OperatorEnteredId_Zero2"><path d="M1157.66,443.049 C1161.04,444.056 1215.69,460.238 1261,465 C1333.49,472.619 1352.51,472.584 1425,465 C1449.7,462.416 1477.18,456.467 1497.68,451.407 " fill="none" id="OperatorEnteredId-to-Zero2" style="stroke:#E7E7E7;stroke-width:1.0;"/><polygon fill="#E7E7E7" points="1502.74,450.142,1493.038,448.4476,1497.8897,451.3564,1494.981,456.2081,1502.74,450.142" style="stroke:#E7E7E7;stroke-width:1.0;"/><text fill="#FFFFFF" font-family="sans-serif" font-size="13" lengthAdjust="spacing" textLength="95" x="1295.5" y="446.0669">DIGIT_CLICKED</text><text fill="#FFFFFF" font-family="sans-serif" font-size="13" lengthAdjust="spacing" textLength="4" x="1295.5" y="461.1997">/</text></g><!--link OperatorEnteredId to BeforeDecimalPoint2--><g id="link_OperatorEnteredId_BeforeDecimalPoint2"><path d="M1157.66,443.063 C1161.04,444.359 1215.71,465.291 1261,478 C1339.07,499.906 1358.81,505.979 1439,518 C1605.63,542.981 1649.29,530.796 1817,547 C1825.03,547.776 1833.38,548.641 1841.74,549.546 " fill="none" id="OperatorEnteredId-to-BeforeDecimalPoint2" style="stroke:#E7E7E7;stroke-width:1.0;"/><polygon fill="#E7E7E7" points="1846.94,550.114,1838.4275,545.1604,1841.9696,549.5711,1837.5589,553.1131,1846.94,550.114" style="stroke:#E7E7E7;stroke-width:1.0;"/><text fill="#FFFFFF" font-family="sans-serif" font-size="13" lengthAdjust="spacing" textLength="95" x="1482.5" y="499.0669">DIGIT_CLICKED</text><text fill="#FFFFFF" font-family="sans-serif" font-size="13" lengthAdjust="spacing" textLength="4" x="1482.5" y="514.1997">/</text></g><!--link OperatorEnteredId to AfterDecimalPoint2--><g id="link_OperatorEnteredId_AfterDecimalPoint2"><path d="M1157.65,443.164 C1160.64,446.519 1209.34,500.553 1261,523 C1414.93,589.889 1845.99,627.685 2012,603 C2101.14,589.745 2130.2,592.748 2206,544 C2222.95,533.099 2219.31,521.293 2236,510 C2236.62,509.579 2237.25,509.164 2237.89,508.754 " fill="none" id="OperatorEnteredId-to-AfterDecimalPoint2" style="stroke:#E7E7E7;stroke-width:1.0;"/><polygon fill="#E7E7E7" points="2242.16,506.124,2232.3971,507.4222,2237.8985,508.7392,2236.5814,514.2406,2242.16,506.124" style="stroke:#E7E7E7;stroke-width:1.0;"/><text fill="#FFFFFF" font-family="sans-serif" font-size="13" lengthAdjust="spacing" textLength="162" x="1654" y="580.0669">DECIMAL_POINT_CLICKED</text><text fill="#FFFFFF" font-family="sans-serif" font-size="13" lengthAdjust="spacing" textLength="8" x="1654" y="595.1997">/,</text></g><!--link OperatorEnteredId to NegativeNumber2--><g id="link_OperatorEnteredId_NegativeNumber2"><path d="M1127.4926,447.9208 C1127.2661,447.9358 1127.039,447.9502 1126.8113,447.9641 C1112.235,448.8533 1095.05,447.4465 1082,439 C1018.84,398.115 888.184,194.18 934,134.5 C966.958,91.57 1027.26,77.4 1076.78,73.59 " fill="none" id="OperatorEnteredId-to-NegativeNumber2" style="stroke:#E7E7E7;stroke-width:1.0;"/><polygon fill="#E7E7E7" points="1081.85,73.23,1072.5974,69.8551,1076.8617,73.5721,1073.1447,77.8363,1081.85,73.23" style="stroke:#E7E7E7;stroke-width:1.0;"/><text fill="#FFFFFF" font-family="sans-serif" font-size="13" lengthAdjust="spacing" textLength="132" x="904" y="147.5669">OPERATOR_CLICKED</text></g><!--link NegativeNumber2 to OperatorEnteredId--><g id="link_NegativeNumber2_OperatorEnteredId"><path d="M1081.99,78.67 C1027.05,85.74 955.733,105.06 919,156.5 C834.762,274.47 957.44,364.856 1082,439 C1095.355,446.95 1112.56,448.3257 1127.0713,447.5438 C1127.1846,447.5376 1127.2978,447.5314 1127.4109,447.525 " fill="none" id="NegativeNumber2-to-OperatorEnteredId" style="stroke:#E7E7E7;stroke-width:1.0;"/><polygon fill="#E7E7E7" points="1127.4109,447.525,1118.2,444.0378,1122.4188,447.8064,1118.6502,452.0251,1127.4109,447.525" style="stroke:#E7E7E7;stroke-width:1.0;"/><text fill="#FFFFFF" font-family="sans-serif" font-size="13" lengthAdjust="spacing" textLength="162" x="889" y="169.5669">CLEAR_BUTTON_CLICKED</text></g><!--link OperatorEnteredId to OperatorEnteredId--><g id="link_OperatorEnteredId_OperatorEnteredId"><path d="M2402.5,442.861 C2356.54,431.03 2356.72,407.64 2403.04,407.64 C2449.36,407.64 2449.54,431.03 2403.58,442.861 " fill="none" id="OperatorEnteredId-to-OperatorEnteredId" style="stroke:#E7E7E7;stroke-width:1.0;"/><polygon fill="#E7E7E7" points="2403.58,442.861,2413.293,444.4911,2408.4221,441.6145,2411.2987,436.7437,2403.58,442.861" style="stroke:#E7E7E7;stroke-width:1.0;"/><text fill="#FFFFFF" font-family="sans-serif" font-size="13" lengthAdjust="spacing" textLength="132" x="2337.04" y="383.7069">OPERATOR_CLICKED</text><text fill="#FFFFFF" font-family="sans-serif" font-size="13" lengthAdjust="spacing" textLength="4" x="2337.04" y="398.8397">/</text></g><!--link NegativeNumber2 to Zero2--><g id="link_NegativeNumber2_Zero2"><path d="M1181.74,100.07 C1212.31,131.69 1260.92,181.96 1261,182 C1326.16,218.37 1376.19,161.55 1425,218 C1453.56,251.03 1412.05,379.643 1439,414 C1452.92,431.742 1477.81,438.793 1497.89,441.519 " fill="none" id="NegativeNumber2-to-Zero2" style="stroke:#E7E7E7;stroke-width:1.0;"/><polygon fill="#E7E7E7" points="1502.89,442.123,1494.435,437.072,1497.9261,441.523,1493.4751,445.0142,1502.89,442.123" style="stroke:#E7E7E7;stroke-width:1.0;"/><text fill="#FFFFFF" font-family="sans-serif" font-size="13" lengthAdjust="spacing" textLength="95" x="1295.5" y="163.0669">DIGIT_CLICKED</text><text fill="#FFFFFF" font-family="sans-serif" font-size="13" lengthAdjust="spacing" textLength="4" x="1295.5" y="178.1997">/</text></g><!--link NegativeNumber2 to BeforeDecimalPoint2--><g id="link_NegativeNumber2_BeforeDecimalPoint2"><path d="M1231.19,87.19 C1286.34,98.05 1362.67,116.8 1425,146 C1618.41,236.62 1660.79,278.338 1817,424 C1852.65,457.242 1887.2,501.915 1908.16,530.833 " fill="none" id="NegativeNumber2-to-BeforeDecimalPoint2" style="stroke:#E7E7E7;stroke-width:1.0;"/><polygon fill="#E7E7E7" points="1911.15,534.982,1909.1325,525.342,1908.2264,530.9258,1902.6426,530.0197,1911.15,534.982" style="stroke:#E7E7E7;stroke-width:1.0;"/><text fill="#FFFFFF" font-family="sans-serif" font-size="13" lengthAdjust="spacing" textLength="95" x="1482.5" y="135.0669">DIGIT_CLICKED</text><text fill="#FFFFFF" font-family="sans-serif" font-size="13" lengthAdjust="spacing" textLength="4" x="1482.5" y="150.1997">/</text></g><!--link NegativeNumber2 to AfterDecimalPoint2--><g id="link_NegativeNumber2_AfterDecimalPoint2"><path d="M1231.1,71.47 C1328.09,68.93 1503.01,71.68 1645,114 C1906.87,192.06 2181.55,381.193 2279.82,452.849 " fill="none" id="NegativeNumber2-to-AfterDecimalPoint2" style="stroke:#E7E7E7;stroke-width:1.0;"/><polygon fill="#E7E7E7" points="2284.08,455.966,2279.1831,447.4208,2280.0463,453.0114,2274.4557,453.8747,2284.08,455.966" style="stroke:#E7E7E7;stroke-width:1.0;"/><text fill="#FFFFFF" font-family="sans-serif" font-size="13" lengthAdjust="spacing" textLength="162" x="1654" y="100.0669">DECIMAL_POINT_CLICKED</text><text fill="#FFFFFF" font-family="sans-serif" font-size="13" lengthAdjust="spacing" textLength="8" x="1654" y="115.1997">/,</text></g><!--link Operand2Entered to AlertError--><g id="link_Operand2Entered_AlertError"><path d="M328.7919,787.8177 C328.4003,787.8555 328.0077,787.8933 327.6141,787.9313 C326.8268,788.0072 326.0353,788.0835 325.2399,788.1602 C322.058,788.467 318.8118,788.78 315.5091,789.0985 C308.9037,789.7354 302.0724,790.3941 295.0781,791.0685 C239.1243,796.4638 172.747,802.864 128.253,807.154 " fill="none" id="Operand2Entered-to-AlertError" style="stroke:#E7E7E7;stroke-width:1.0;"/><polygon fill="#E7E7E7" points="123.042,807.657,132.3844,810.7746,128.0189,807.177,131.6165,802.8115,123.042,807.657" style="stroke:#E7E7E7;stroke-width:1.0;"/><text fill="#FFFFFF" font-family="sans-serif" font-size="13" lengthAdjust="spacing" textLength="141" x="154" y="787.0669">EQUAL_SIGN_CLICKED</text></g><!--link Operand2Entered to Result--><g id="link_Operand2Entered_Result"><path d="M473.3521,781.0822 C473.9483,780.9696 474.5432,780.853 475.1368,780.7323 C479.8854,779.767 484.5448,778.5408 489,777 C579.332,745.759 610.207,731.007 664,652 C691.846,611.102 652.737,575.368 691,544 C698.113,538.1685 718.573,537.1085 737.5185,537.5356 C739.8867,537.589 742.2312,537.6656 744.523,537.7591 C745.096,537.7825 745.6657,537.8069 746.2316,537.8322 C746.3731,537.8386 746.5143,537.845 746.6553,537.8514 " fill="none" id="Operand2Entered-to-Result" style="stroke:#E7E7E7;stroke-width:1.0;"/><polygon fill="#E7E7E7" points="746.6553,537.8514,737.8478,533.4438,741.6606,537.6227,737.4817,541.4354,746.6553,537.8514" style="stroke:#E7E7E7;stroke-width:1.0;"/><text fill="#FFFFFF" font-family="sans-serif" font-size="13" lengthAdjust="spacing" textLength="141" x="514" y="633.0669">EQUAL_SIGN_CLICKED</text><text fill="#FFFFFF" font-family="sans-serif" font-size="13" lengthAdjust="spacing" textLength="12" x="514" y="648.1997">/,,</text></g><!--link Operand2Entered to OperatorEnteredId--><g id="link_Operand2Entered_OperatorEnteredId"><path d="M473.6987,790.2272 C474.2937,790.298 474.8915,790.369 475.492,790.4402 C480.2957,791.0099 485.2734,791.5924 490.4067,792.1839 C500.6732,793.3669 511.5618,794.5858 522.9245,795.8097 C545.6497,798.2574 570.2712,800.7248 595.6046,802.9639 C696.9385,811.9203 809.665,817.2235 858,803 C956.399,774.045 985.4,756.01 1052,678 C1070.235,656.6395 1085.7631,631.5603 1098.8123,605.8862 C1105.337,593.0492 1111.2418,580.0635 1116.5555,567.3196 C1119.2123,560.9476 1121.7213,554.6361 1124.0861,548.4339 C1124.6773,546.8833 1125.2595,545.3396 1125.8327,543.8034 C1126.1193,543.0354 1126.4037,542.2692 1126.6858,541.505 C1126.8269,541.1229 1126.9674,540.7413 1127.1073,540.3603 " fill="none" id="Operand2Entered-to-OperatorEnteredId" style="stroke:#E7E7E7;stroke-width:1.0;"/><polygon fill="#E7E7E7" points="1127.1073,540.3603,1120.2499,547.4296,1125.3836,545.0538,1127.7595,550.1875,1127.1073,540.3603" style="stroke:#E7E7E7;stroke-width:1.0;"/><text fill="#FFFFFF" font-family="sans-serif" font-size="13" lengthAdjust="spacing" textLength="132" x="710" y="784.0669">OPERATOR_CLICKED</text><text fill="#FFFFFF" font-family="sans-serif" font-size="13" lengthAdjust="spacing" textLength="8" x="710" y="799.1997">/,</text></g><!--link Operand2Entered to OperatorEnteredId--><g id="link_Operand2Entered_OperatorEnteredId"><path d="M473.0456,792.9052 C473.3374,793.0108 473.6287,793.1174 473.9196,793.2249 C474.5014,793.44 475.0813,793.6589 475.6591,793.8816 C480.2816,795.6633 484.7701,797.6914 489,800 C497.827,804.818 496.106,811.305 505,816 C720.076,929.533 877.538,970.442 1052,801 C1066.735,786.6885 1092.3225,698.4698 1114.3688,613.1958 C1117.1245,602.5365 1119.825,591.9233 1122.442,581.5061 C1123.7505,576.2976 1125.0381,571.138 1126.3014,566.0463 C1126.6172,564.7734 1126.9315,563.5047 1127.2442,562.2405 " fill="none" id="Operand2Entered-to-OperatorEnteredId-1" style="stroke:#E7E7E7;stroke-width:1.0;"/><polygon fill="#E7E7E7" points="1127.2442,562.2405,1121.2001,570.0166,1126.0436,567.0942,1128.966,571.9377,1127.2442,562.2405" style="stroke:#E7E7E7;stroke-width:1.0;"/><text fill="#FFFFFF" font-family="sans-serif" font-size="13" lengthAdjust="spacing" textLength="162" x="695" y="877.0669">CLEAR_BUTTON_CLICKED</text><text fill="#FFFFFF" font-family="sans-serif" font-size="13" lengthAdjust="spacing" textLength="4" x="695" y="892.1997">/</text></g><!--link Zero2 to Zero2--><g id="link_Zero2_Zero2"><path d="M1502.79,423.954 C1486.78,404.572 1495.85,383 1530,383 C1561.75,383 1571.82,401.645 1560.22,419.841 " fill="none" id="Zero2-to-Zero2" style="stroke:#E7E7E7;stroke-width:1.0;"/><polygon fill="#E7E7E7" points="1557.21,423.954,1565.7545,419.0559,1560.164,419.9199,1559.3,414.3295,1557.21,423.954" style="stroke:#E7E7E7;stroke-width:1.0;"/><text fill="#FFFFFF" font-family="sans-serif" font-size="13" lengthAdjust="spacing" textLength="95" x="1482.5" y="374.0669">DIGIT_CLICKED</text></g><!--link Zero2 to BeforeDecimalPoint2--><g id="link_Zero2_BeforeDecimalPoint2"><path d="M1557.17,446.844 C1608.15,454.769 1723.92,474.916 1817,507 C1837.17,513.954 1858.52,523.515 1877.08,532.604 " fill="none" id="Zero2-to-BeforeDecimalPoint2" style="stroke:#E7E7E7;stroke-width:1.0;"/><polygon fill="#E7E7E7" points="1881.73,534.903,1875.4322,527.3309,1877.2471,532.6887,1871.8892,534.5036,1881.73,534.903" style="stroke:#E7E7E7;stroke-width:1.0;"/><text fill="#FFFFFF" font-family="sans-serif" font-size="13" lengthAdjust="spacing" textLength="95" x="1687.5" y="445.0669">DIGIT_CLICKED</text><text fill="#FFFFFF" font-family="sans-serif" font-size="13" lengthAdjust="spacing" textLength="4" x="1687.5" y="460.1997">/</text></g><!--link Zero2 to AfterDecimalPoint2--><g id="link_Zero2_AfterDecimalPoint2"><path d="M1557.04,437.749 C1581.65,433.072 1619.66,426.581 1653,424 C1725.67,418.375 1744.21,420.267 1817,424 C1819.71,424.139 2203.31,463.656 2206,464 C2215.85,465.256 2226.17,466.682 2236.39,468.16 " fill="none" id="Zero2-to-AfterDecimalPoint2" style="stroke:#E7E7E7;stroke-width:1.0;"/><polygon fill="#E7E7E7" points="2241.4,468.89,2233.0638,463.6453,2236.4513,468.1757,2231.9209,471.5632,2241.4,468.89" style="stroke:#E7E7E7;stroke-width:1.0;"/><text fill="#FFFFFF" font-family="sans-serif" font-size="13" lengthAdjust="spacing" textLength="162" x="1848.5" y="408.0669">DECIMAL_POINT_CLICKED</text><text fill="#FFFFFF" font-family="sans-serif" font-size="13" lengthAdjust="spacing" textLength="4" x="1848.5" y="423.1997">/</text></g><!--link BeforeDecimalPoint2 to BeforeDecimalPoint2--><g id="link_BeforeDecimalPoint2_BeforeDecimalPoint2"><path d="M1896.68,534.722 C1886.73,517.227 1897.67,500 1929.5,500 C1958.34,500 1970.03,514.148 1964.57,529.823 " fill="none" id="BeforeDecimalPoint2-to-BeforeDecimalPoint2" style="stroke:#E7E7E7;stroke-width:1.0;"/><polygon fill="#E7E7E7" points="1962.32,534.722,1969.7087,528.2099,1964.405,530.1775,1962.4375,524.8738,1962.32,534.722" style="stroke:#E7E7E7;stroke-width:1.0;"/><text fill="#FFFFFF" font-family="sans-serif" font-size="13" lengthAdjust="spacing" textLength="95" x="1882" y="476.0669">DIGIT_CLICKED</text><text fill="#FFFFFF" font-family="sans-serif" font-size="13" lengthAdjust="spacing" textLength="4" x="1882" y="491.1997">/</text></g><!--link BeforeDecimalPoint2 to AfterDecimalPoint2--><g id="link_BeforeDecimalPoint2_AfterDecimalPoint2"><path d="M2012.1,543.343 C2078.02,529.886 2170.34,511.041 2236.18,497.6 " fill="none" id="BeforeDecimalPoint2-to-AfterDecimalPoint2" style="stroke:#E7E7E7;stroke-width:1.0;"/><polygon fill="#E7E7E7" points="2241.27,496.561,2231.6518,494.442,2236.371,497.5611,2233.2519,502.2803,2241.27,496.561" style="stroke:#E7E7E7;stroke-width:1.0;"/><text fill="#FFFFFF" font-family="sans-serif" font-size="13" lengthAdjust="spacing" textLength="162" x="2043" y="485.0669">DECIMAL_POINT_CLICKED</text><text fill="#FFFFFF" font-family="sans-serif" font-size="13" lengthAdjust="spacing" textLength="4" x="2043" y="500.1997">/</text></g><!--link AfterDecimalPoint2 to AfterDecimalPoint2--><g id="link_AfterDecimalPoint2_AfterDecimalPoint2"><path d="M2285.68,455.722 C2275.73,438.227 2286.67,421 2318.5,421 C2347.34,421 2359.03,435.148 2353.57,450.823 " fill="none" id="AfterDecimalPoint2-to-AfterDecimalPoint2" style="stroke:#E7E7E7;stroke-width:1.0;"/><polygon fill="#E7E7E7" points="2351.32,455.722,2358.7087,449.2099,2353.405,451.1775,2351.4375,445.8738,2351.32,455.722" style="stroke:#E7E7E7;stroke-width:1.0;"/><text fill="#FFFFFF" font-family="sans-serif" font-size="13" lengthAdjust="spacing" textLength="95" x="2271" y="397.0669">DIGIT_CLICKED</text><text fill="#FFFFFF" font-family="sans-serif" font-size="13" lengthAdjust="spacing" textLength="4" x="2271" y="412.1997">/</text></g><!--link AlertError to History--><g id="link_AlertError_History"><path d="M123.173,833.256 C132.815,836.882 143.085,840.091 153,842 C224.766,855.821 310.48,850.757 359.595,845.854 " fill="none" id="AlertError-to-History" style="stroke:#E7E7E7;stroke-width:1.0;"/><polygon fill="#E7E7E7" points="364.815,845.319,355.4539,842.2581,359.8411,845.8291,356.27,850.2163,364.815,845.319" style="stroke:#E7E7E7;stroke-width:1.0;"/><text fill="#FFFFFF" font-family="sans-serif" font-size="13" lengthAdjust="spacing" textLength="138" x="155.5" y="838.0669">OK_BUTTON_CLICKED</text></g><!--SRC=[fLN1RgCm4Btp5LQFgpQh-9Z3IfHOBMeAMP9SkhkAQ71I90AHSLQgLldtDM1IWWSmS4lmp9kPDszc8hhdY2U8XOSFZeAGqHqFazZu20EAwF74Fr50qnqBJ_ddbFkSehjbvCTyyxhOMacy3mzto4zHxHlwPo3qwziVzF3me_usiQ9poYapX4dThSKSpP17LcIzjHQszKBcmblc8msWFAxEMJwT6KrMt6VSo4sRW3BtDygIgSXdRZ_Prtn-Hzyx7H_fFc5qJdVXqO-MIHZpGJ3cNlnIK8XblvgBxTArdIhQVGudgSeBR2Ege43IXJgiibmSUl1v-9Swv-CxPLCx4AcuI-APQzUhj0gXYr5DnAFfEMhFf33fJ4MQPRcu9yfydZ0IYmSQWBcK_6e1TfZCa02tYA1xPJyvzGWNGnOjIwunbTUkibUKgtxlr1tiqaDnCC00hS50xLAQ8Mj1J6_xk5clNQSYd2g3UN_ZO2hx2wgdPYFvxBBggnuTl57Y6H6WcSihaPcGSlOAHPKZLlnhL9fYrKDSLRTUaW9sXneshmNAfgmCUkjTGKyG_O8KGl9w09hASe2dPcAXOYxGP7rfFu-lpaCHNlrUAWOtXODTLDvw0YZruixT10FL9-bsW-6camQ3wU-Hvkk0mTrMJmlURNMhpkxe0FJebGxSWCxfm4BKwzyLh75NiDPTmMrhsemeuuIn9DlKvET6L5oz08DnbVkYOcTatci7q1JoE42eFQMIP7kUmrGuVUgqPI9jPNjkr-pDrSCtLwzbIXIh7gDGTUib-J5N3xTSlG4LD86ChKVpwE7cezUMXyxH-nf4K5gLEOM7lM80pMEJDCKGlK3xwF8V]--></g></svg>